<svg width="30" height="30" viewBox="0 0 30 30" fill="none" xmlns="http://www.w3.org/2000/svg">
<path d="M15.0417 17.8333C22.9767 17.8333 29.4167 20.8425 29.4167 24.5417V29.3333H0.666687V24.5417C0.666687 20.8425 7.10669 17.8333 15.0417 17.8333ZM27.5 24.5417C27.5 21.8967 21.9225 19.75 15.0417 19.75C8.16085 19.75 2.58335 21.8967 2.58335 24.5417V27.4167H27.5V24.5417ZM15.0417 0.583344C16.8208 0.583344 18.5271 1.29011 19.7852 2.54817C21.0433 3.80623 21.75 5.51252 21.75 7.29168C21.75 9.07084 21.0433 10.7771 19.7852 12.0352C18.5271 13.2932 16.8208 14 15.0417 14C13.2625 14 11.5562 13.2932 10.2982 12.0352C9.04012 10.7771 8.33335 9.07084 8.33335 7.29168C8.33335 5.51252 9.04012 3.80623 10.2982 2.54817C11.5562 1.29011 13.2625 0.583344 15.0417 0.583344ZM15.0417 2.50001C13.7709 2.50001 12.5521 3.00484 11.6535 3.90346C10.7549 4.80207 10.25 6.02085 10.25 7.29168C10.25 8.56251 10.7549 9.78128 11.6535 10.6799C12.5521 11.5785 13.7709 12.0833 15.0417 12.0833C16.3125 12.0833 17.5313 11.5785 18.4299 10.6799C19.3285 9.78128 19.8334 8.56251 19.8334 7.29168C19.8334 6.02085 19.3285 4.80207 18.4299 3.90346C17.5313 3.00484 16.3125 2.50001 15.0417 2.50001Z" fill="black"/>
<path d="M15.0417 17.8333C22.9767 17.8333 29.4167 20.8425 29.4167 24.5417V29.3333H0.666687V24.5417C0.666687 20.8425 7.10669 17.8333 15.0417 17.8333ZM27.5 24.5417C27.5 21.8967 21.9225 19.75 15.0417 19.75C8.16085 19.75 2.58335 21.8967 2.58335 24.5417V27.4167H27.5V24.5417ZM15.0417 0.583344C16.8208 0.583344 18.5271 1.29011 19.7852 2.54817C21.0433 3.80623 21.75 5.51252 21.75 7.29168C21.75 9.07084 21.0433 10.7771 19.7852 12.0352C18.5271 13.2932 16.8208 14 15.0417 14C13.2625 14 11.5562 13.2932 10.2982 12.0352C9.04012 10.7771 8.33335 9.07084 8.33335 7.29168C8.33335 5.51252 9.04012 3.80623 10.2982 2.54817C11.5562 1.29011 13.2625 0.583344 15.0417 0.583344ZM15.0417 2.50001C13.7709 2.50001 12.5521 3.00484 11.6535 3.90346C10.7549 4.80207 10.25 6.02085 10.25 7.29168C10.25 8.56251 10.7549 9.78128 11.6535 10.6799C12.5521 11.5785 13.7709 12.0833 15.0417 12.0833C16.3125 12.0833 17.5313 11.5785 18.4299 10.6799C19.3285 9.78128 19.8334 8.56251 19.8334 7.29168C19.8334 6.02085 19.3285 4.80207 18.4299 3.90346C17.5313 3.00484 16.3125 2.50001 15.0417 2.50001Z" stroke="black"/>
</svg>
