<svg width="16" height="8" viewBox="0 0 16 8" fill="none" xmlns="http://www.w3.org/2000/svg">
<path fill-rule="evenodd" clip-rule="evenodd" d="M0.42993 0.511996C0.494058 0.437173 0.572302 0.375721 0.660191 0.331153C0.74808 0.286584 0.843889 0.259772 0.942145 0.252249C1.0404 0.244727 1.13918 0.256642 1.23283 0.287312C1.32647 0.317983 1.41316 0.366807 1.48793 0.430996L7.99993 6.012L14.5119 0.430996C14.6638 0.309125 14.857 0.251068 15.0509 0.269099C15.2447 0.28713 15.424 0.379835 15.5507 0.527617C15.6775 0.675399 15.7418 0.866676 15.7301 1.06101C15.7183 1.25535 15.6315 1.43751 15.4879 1.569L8.48793 7.569C8.35201 7.68546 8.17892 7.74947 7.99993 7.74947C7.82094 7.74947 7.64785 7.68546 7.51193 7.569L0.511931 1.569C0.361116 1.43951 0.26787 1.25545 0.252682 1.05726C0.237495 0.859065 0.301606 0.662948 0.430931 0.511996H0.42993Z" fill="black"/>
</svg>
