<svg width="16" height="12" viewBox="0 0 16 12" fill="none" xmlns="http://www.w3.org/2000/svg">
<path d="M15.0103 1.72915L15.0103 1.72919L15.0127 1.72661C15.1091 1.62324 15.1615 1.48651 15.159 1.34524C15.1565 1.20397 15.0993 1.06918 14.9994 0.969265C14.8995 0.869354 14.7647 0.812123 14.6234 0.809631C14.4821 0.807138 14.3454 0.859578 14.242 0.955902L14.242 0.955857L14.2395 0.95835L5.12487 10.0722L1.35402 6.3021L1.35406 6.30205L1.35149 6.29965C1.24811 6.20333 1.11139 6.15089 0.970116 6.15338C0.828843 6.15587 0.694053 6.2131 0.594142 6.31301C0.494231 6.41293 0.437001 6.54772 0.434509 6.68899C0.432016 6.83026 0.484456 6.96699 0.58078 7.07036L0.580734 7.0704L0.58323 7.0729L4.73948 11.2291L4.73952 11.2292C4.84177 11.3313 4.98037 11.3887 5.12488 11.3887C5.26939 11.3887 5.40799 11.3313 5.51023 11.2292L5.51028 11.2291L15.0103 1.72915Z" fill="white" stroke="black" stroke-width="0.2"/>
</svg>
