<svg width="34" height="28" viewBox="0 0 34 28" fill="none" xmlns="http://www.w3.org/2000/svg">
<path d="M24.422 0.24375H24.4219C21.2667 0.24375 18.5333 1.71619 17 4.17014C15.4667 1.71619 12.7333 0.24375 9.57812 0.24375L9.578 0.24375C7.26902 0.246532 5.0554 1.165 3.4227 2.7977C1.79 4.4304 0.871532 6.64402 0.86875 8.953V8.95312C0.86875 13.2404 3.56715 17.701 8.83026 22.2088L8.83051 22.209C11.2616 24.2778 13.8866 26.1073 16.6689 27.6722L16.6705 27.673C16.7717 27.7276 16.885 27.7563 17 27.7563C17.115 27.7563 17.2283 27.7276 17.3295 27.673L17.3295 27.673L17.3311 27.6722C20.1134 26.1073 22.7384 24.2778 25.1695 22.209L25.1697 22.2088C30.4329 17.701 33.1312 13.2404 33.1312 8.95312V8.953C33.1285 6.64402 32.21 4.4304 30.5773 2.7977C28.9446 1.165 26.731 0.246532 24.422 0.24375ZM16.3582 5.94952L16.3583 5.94964C16.4105 6.07688 16.4995 6.18571 16.6137 6.2623C16.728 6.33889 16.8624 6.37979 17 6.37979C17.1376 6.37979 17.272 6.33889 17.3863 6.2623C17.5005 6.18571 17.5894 6.07688 17.6417 5.94964L17.6418 5.94952C18.7308 3.28899 21.3251 1.63125 24.4219 1.63125C26.363 1.6336 28.224 2.40577 29.5966 3.77838C30.9693 5.15102 31.7414 7.01204 31.7437 8.95325C31.7437 13.2119 28.5826 17.248 25.134 20.3793C21.7433 23.4578 18.1002 25.6389 17 26.2676C15.8998 25.639 12.2566 23.4604 8.86603 20.3832C5.41737 17.2532 2.25626 13.2171 2.25625 8.95315C2.2586 7.01198 3.03077 5.15099 4.40338 3.77838C5.77599 2.40577 7.63698 1.6336 9.57815 1.63125C12.6749 1.63126 15.2692 3.28899 16.3582 5.94952Z" fill="black" stroke="black" stroke-width="0.2"/>
</svg>
