<svg width="31" height="31" viewBox="0 0 31 31" fill="none" xmlns="http://www.w3.org/2000/svg">
<path d="M29.9974 29.0306L22.3794 21.4126C24.5096 19.0327 25.637 15.9196 25.5229 12.7252C25.4076 9.49901 24.0352 6.44585 21.6988 4.21813C19.3624 1.9904 16.2474 0.7648 13.0194 0.803221C9.7914 0.841641 6.70644 2.14103 4.42374 4.42374C2.14103 6.70644 0.841641 9.7914 0.803221 13.0194C0.7648 16.2474 1.9904 19.3624 4.21813 21.6988C6.44585 24.0352 9.49901 25.4076 12.7252 25.5229C15.9196 25.637 19.0327 24.5096 21.4126 22.3794L29.0306 29.9974C29.1588 30.1256 29.3327 30.1977 29.514 30.1977C29.6953 30.1977 29.8692 30.1256 29.9974 29.9974C30.1256 29.8692 30.1977 29.6953 30.1977 29.514C30.1977 29.3327 30.1256 29.1588 29.9974 29.0306ZM2.19819 13.1812C2.19819 11.0089 2.84233 8.8855 4.04915 7.07936C5.25598 5.27321 6.97129 3.86549 8.97817 3.03422C10.9851 2.20294 13.1934 1.98544 15.3239 2.40922C17.4543 2.833 19.4113 3.87903 20.9473 5.41503C22.4833 6.95103 23.5294 8.90801 23.9531 11.0385C24.3769 13.169 24.1594 15.3773 23.3281 17.3842C22.4969 19.3911 21.0891 21.1064 19.283 22.3132C17.4769 23.52 15.3535 24.1642 13.1813 24.1642C10.2693 24.1611 7.47751 23.003 5.41844 20.9439C3.3594 18.8849 2.20127 16.0931 2.19819 13.1812Z" fill="black" stroke="black" stroke-width="0.2"/>
</svg>
